<?xml version="1.0" encoding="UTF-8" standalone="no"?>
<!-- Created with Inkscape (http://www.inkscape.org/) -->

<svg
   width="512"
   height="512"
   viewBox="0 0 512 512"
   version="1.1"
   id="svg1"
   inkscape:export-filename="bitmap.svg"
   inkscape:export-xdpi="96"
   inkscape:export-ydpi="96"
   xmlns:inkscape="http://www.inkscape.org/namespaces/inkscape"
   xmlns:sodipodi="http://sodipodi.sourceforge.net/DTD/sodipodi-0.dtd"
   xmlns="http://www.w3.org/2000/svg"
   xmlns:svg="http://www.w3.org/2000/svg">
  <sodipodi:namedview
     id="namedview1"
     pagecolor="#505050"
     bordercolor="#eeeeee"
     borderopacity="1"
     inkscape:showpageshadow="0"
     inkscape:pageopacity="0"
     inkscape:pagecheckerboard="0"
     inkscape:deskcolor="#505050"
     inkscape:document-units="px">
    <inkscape:page
       x="0"
       y="0"
       width="512"
       height="512"
       id="page2"
       margin="0"
       bleed="0" />
  </sodipodi:namedview>
  <defs
     id="defs1" />
  <rect
     style="fill:#241f31;stroke-width:0.976796"
     id="rect514"
     width="400"
     height="400"
     x="60.03397"
     y="60.157749"
     ry="57.021091" />
  <g
     inkscape:label="Layer 1"
     inkscape:groupmode="layer"
     id="layer1">
    <g
       id="g514"
       transform="matrix(1.2563276,0.18123722,-0.18123722,1.2563276,474.18901,22.410818)">
      <path
         id="rect513"
         style="fill:#3584e4;stroke-width:0.730051"
         d="m 54.247252,107.73666 -9.514267,45.43432 55.587465,26.11539 c 4.00453,1.88136 9.30607,4.33324 15.90504,7.35351 5.20917,2.32003 10.59589,4.69776 16.15853,7.13321 -1.15981,0.11713 -2.33464,0.23763 -3.52492,0.36126 -5.70042,0.52086 -11.03933,1.09048 -16.01527,1.71177 -5.02857,0.5166 -9.01446,1.04505 -11.95961,1.58077 l -67.860904,11.66319 -9.698849,46.3064 151.567963,71.20771 0.12962,0.0609 0.0136,-0.0615 47.38739,5.6e-4 -2e-5,-25.01998 -42.14939,-3.5e-4 4.26268,-20.35307 -55.38403,-26.01981 c -3.05432,-1.43494 -7.30478,-3.3909 -12.74991,-5.86908 -5.42988,-2.551 -11.60291,-5.29163 -18.51913,-8.22102 -0.183013,-0.0796 -0.365495,-0.15927 -0.548752,-0.23872 0.584447,-0.0521 1.167956,-0.10304 1.750497,-0.15549 7.157745,-0.71591 13.685905,-1.44882 19.583065,-2.19714 5.84453,-0.85302 10.657,-1.59021 14.44023,-2.21204 l 63.13873,-11.00318 9.69781,-46.30901 -100.85747,-47.38357 -2.16814,-23.2937 z"
         transform="matrix(0.43257428,0.9015983,-0.92074867,0.39015623,0,0)" />
      <path
         d="M -204.55576,327.97366 V 163.39777 l 46.83233,-9.32385 40.09466,56.63292 q 2.65089,3.66946 6.62722,10.16776 4.08678,6.36585 8.50493,13.77026 4.5286,7.38242 8.39447,13.9027 l -5.52268,13.91214 q -0.55227,-8.8368 -0.88363,-20.14755 -0.33136,-11.4212 -0.55227,-21.98077 -0.11045,-10.69201 -0.11045,-17.20878 v -60.30767 l 45.9487,-9.14793 v 164.57589 l -46.83233,9.32385 -37.44377,-52.63209 q -3.31361,-4.75252 -8.28402,-12.15743 -4.85996,-7.53736 -10.4931,-16.7985 -5.52268,-9.28313 -11.15581,-18.98608 l 9.05719,-4.45409 q 0.88363,11.42171 1.21499,22.51155 0.44182,11.06786 0.44182,19.90415 0.11045,8.8143 0.11045,13.78471 v 60.08677 z"
         id="text511-7"
         style="font-weight:900;font-size:226.209px;font-family:'Adwaita Sans';-inkscape-font-specification:'Adwaita Sans Heavy';fill:#1a5fb4;stroke-width:2.65089"
         aria-label="N" />
    </g>
  </g>
</svg>
